<svg width="512" height="512" viewBox="0 0 512 512" fill="none" xmlns="http://www.w3.org/2000/svg">
<g clip-path="url(#clip0_674_599)">
<rect width="512" height="512" rx="142.222" fill="#050C0F"/>
<g filter="url(#filter0_f_674_599)">
<circle cx="104.728" cy="360.728" r="162.909" fill="#001B66"/>
</g>
<g filter="url(#filter1_f_674_599)">
<circle cx="139.909" cy="185.909" r="162.909" fill="#3A0EFF"/>
</g>
<g filter="url(#filter2_f_674_599)">
<circle cx="403.909" cy="220.909" r="162.909" fill="#050C0F"/>
</g>
<g filter="url(#filter3_f_674_599)">
<circle cx="418.909" cy="383.909" r="162.909" fill="#0364FF"/>
</g>
<rect width="512" height="512" fill="white" fill-opacity="0.01"/>
<g opacity="0.85">
<path d="M164.335 173.5V338.5" stroke="white" stroke-width="18.3333" stroke-linecap="round" stroke-linejoin="round"/>
<path d="M292.667 173.5H219.333C209.208 173.5 201 181.708 201 191.833V320.167C201 330.292 209.208 338.5 219.333 338.5H292.667C302.792 338.5 311 330.292 311 320.167V191.833C311 181.708 302.792 173.5 292.667 173.5Z" fill="white" stroke="white" stroke-width="18.3333" stroke-linecap="round" stroke-linejoin="round"/>
<path d="M347.665 173.5V338.5" stroke="white" stroke-width="18.3333" stroke-linecap="round" stroke-linejoin="round"/>
</g>
</g>
<defs>
<filter id="filter0_f_674_599" x="-288.181" y="-32.1812" width="785.818" height="785.818" filterUnits="userSpaceOnUse" color-interpolation-filters="sRGB">
<feFlood flood-opacity="0" result="BackgroundImageFix"/>
<feBlend mode="normal" in="SourceGraphic" in2="BackgroundImageFix" result="shape"/>
<feGaussianBlur stdDeviation="115" result="effect1_foregroundBlur_674_599"/>
</filter>
<filter id="filter1_f_674_599" x="-253" y="-207" width="785.818" height="785.818" filterUnits="userSpaceOnUse" color-interpolation-filters="sRGB">
<feFlood flood-opacity="0" result="BackgroundImageFix"/>
<feBlend mode="normal" in="SourceGraphic" in2="BackgroundImageFix" result="shape"/>
<feGaussianBlur stdDeviation="115" result="effect1_foregroundBlur_674_599"/>
</filter>
<filter id="filter2_f_674_599" x="11" y="-172" width="785.818" height="785.818" filterUnits="userSpaceOnUse" color-interpolation-filters="sRGB">
<feFlood flood-opacity="0" result="BackgroundImageFix"/>
<feBlend mode="normal" in="SourceGraphic" in2="BackgroundImageFix" result="shape"/>
<feGaussianBlur stdDeviation="115" result="effect1_foregroundBlur_674_599"/>
</filter>
<filter id="filter3_f_674_599" x="26" y="-9" width="785.818" height="785.818" filterUnits="userSpaceOnUse" color-interpolation-filters="sRGB">
<feFlood flood-opacity="0" result="BackgroundImageFix"/>
<feBlend mode="normal" in="SourceGraphic" in2="BackgroundImageFix" result="shape"/>
<feGaussianBlur stdDeviation="115" result="effect1_foregroundBlur_674_599"/>
</filter>
<clipPath id="clip0_674_599">
<rect width="512" height="512" rx="142.222" fill="white"/>
</clipPath>
</defs>
</svg>
